PathFileType	4	(X/Y/Z)	Shrugging.trc																																																																									
DataRate	CameraRate	NumFrames	NumMarkers	Units	OrigDataRate	OrigDataStartFrame	OrigNumFrames																																																																					
100	100	5	25	mm	100	511	2047																																																																					
Frame#	Time	AA			AI			Ant_Sh			CV7			GH			LAH			Lat_Sh			LCAJ			LPH			Post_Sh			RAH			RCAJ			RHLE			RHME			RPH			RUA			SJN			SXS			TS			TV8			centelbow			centpxt8			centijc7			centLPHRPH			ScapulaThoracicContactPt		
		X1	Y1	Z1	X2	Y2	Z2	X3	Y3	Z3	X4	Y4	Z4	X5	Y5	Z5	X6	Y6	Z6	X7	Y7	Z7	X8	Y8	Z8	X9	Y9	Z9	X10	Y10	Z10	X11	Y11	Z11	X12	Y12	Z12	X13	Y13	Z13	X14	Y14	Z14	X15	Y15	Z15	X16	Y16	Z16	X17	Y17	Z17	X18	Y18	Z18	X19	Y19	Z19	X20	Y20	Z20	X21	Y21	Z21	X22	Y22	Z22	X23	Y23	Z23	X24	Y24	Z24	X25	Y25	Z25
																																																																												
512	5.11	-67.83846283	1523.975464	1080.898682	-118.4685287	1354.25	1002.824646	43.22076035	1492.15271	1083.010254	-73.13665771	1596.207031	875.8215332	-12.46941757	1490.07666	1080.229004	148.5368195	1774.215698	842.9008789	-14.73783493	1505.262817	1114.314575	-5.613224506	1561.471069	697.6373901	-55.31550217	1732.539551	816.041748	-94.69811249	1487.011475	1076.122192	135.921463	1773.651245	941.8175659	-12.26622772	1557.953735	1054.88147	4.310361862	1211.423584	1180.131226	-15.40045929	1167.770996	1066.057861	-61.26753616	1733.976196	931.9102173	-84.18601227	1335.260498	1125.344849	91.79650879	1513.342896	884.9490356	156.1325226	1342.359741	889.1601563	-120.2568512	1495.578247	965.0449219	-78.80743408	1306.939331	873.0001221	-5.545048714	1189.59729	1123.094543	38.66254425	1324.649536	881.0801392	9.329925537	1554.774963	880.3852844	-58.29151917	1733.257874	873.9759827	-102.1879476	1457.93457	1016.256083
513	5.12	-67.72602844	1523.95874	1080.899414	-118.4583435	1354.227783	1002.887817	43.29124069	1492.163452	1083.000244	-73.08625031	1596.17627	875.9157104	-12.34815216	1490.091797	1080.229736	148.6915894	1774.179932	843.0186157	-14.60752296	1505.25769	1114.26416	-5.584798336	1561.487183	697.6669922	-55.26427841	1732.512207	816.1052246	-94.61112213	1487.029053	1076.133545	136.0153656	1773.574097	941.7789307	-12.20150089	1557.937012	1054.856934	4.318073273	1211.352661	1179.97522	-15.36988258	1167.7854	1065.930176	-61.18110657	1733.978882	931.9232178	-84.13315582	1335.290527	1125.224731	91.81548309	1513.296997	884.9255981	156.1355133	1342.329712	889.1303711	-120.2106018	1495.604736	965.0222778	-78.76810455	1306.927368	873.0336304	-5.525904655	1189.569031	1122.952698	38.68370438	1324.62854	881.0820007	9.364616394	1554.736633	880.4206543	-58.22269249	1733.245544	874.0142212	-102.1316579	1457.93042	1016.269836
514	5.13	-67.64457703	1523.95874	1080.874146	-118.475235	1354.220581	1002.798523	43.37217712	1492.132813	1082.977173	-73.05077362	1596.215454	875.9177856	-12.31242657	1490.087158	1080.203857	148.7785645	1774.140747	843.0377808	-14.56214142	1505.237427	1114.199951	-5.516748905	1561.503662	697.659729	-55.21060944	1732.567749	816.1366577	-94.55859375	1487.065674	1076.107544	136.1226959	1773.546997	941.8162231	-12.1249752	1557.935547	1054.827881	4.418167591	1211.330444	1179.82373	-15.36056614	1167.773438	1065.783081	-61.15050507	1733.944092	931.9633789	-84.09192657	1335.28772	1125.115112	91.85139465	1513.265625	884.9230957	156.1991425	1342.303345	889.079834	-120.1539993	1495.601196	964.9933472	-78.67547607	1306.898193	873.0413208	-5.471199274	1189.551941	1122.803406	38.76183319	1324.600769	881.0605774	9.400310516	1554.74054	880.4204407	-58.18055725	1733.25592	874.0500183	-102.0912704	1457.926839	1016.222005
515	5.14	-67.56990814	1523.938232	1080.887207	-118.4771652	1354.249023	1002.801758	43.4361763	1492.111694	1082.939087	-72.94976044	1596.218506	875.9619141	-12.23404694	1490.07251	1080.196167	148.9707947	1774.134155	843.1207275	-14.46396732	1505.203857	1114.205566	-5.52037859	1561.5	697.6642456	-55.12796402	1732.567993	816.2023315	-94.4337616	1487.061646	1076.146118	136.2384033	1773.508789	941.8153687	-12.06400681	1557.959351	1054.805786	4.532798767	1211.309692	1179.688965	-15.30559158	1167.752197	1065.703369	-61.08882523	1733.971436	931.9915771	-83.99541473	1335.26123	1125.07251	91.86772156	1513.233887	884.9078979	156.2259674	1342.25354	889.0814819	-120.1235886	1495.688477	964.9928589	-78.67047119	1306.951294	873.0401611	-5.386396408	1189.530945	1122.696167	38.77774811	1324.602417	881.0608215	9.45898056	1554.726196	880.434906	-58.10839462	1733.269714	874.0969543	-102.0568873	1457.958577	1016.227275
516	5.15	-67.47667694	1523.952026	1080.844727	-118.475174	1354.248535	1002.800415	43.50254059	1492.083618	1082.896973	-72.86846924	1596.226929	875.9335938	-12.13268852	1490.071411	1080.150391	149.0585632	1774.084839	843.1876831	-14.36081219	1505.198486	1114.201294	-5.521102905	1561.508667	697.6710815	-55.01818466	1732.586304	816.2138062	-94.40713501	1487.095947	1076.088623	136.3357239	1773.480225	941.7965698	-11.96848392	1557.918213	1054.750488	4.677767277	1211.303467	1179.612427	-15.23550034	1167.758057	1065.610229	-61.00650406	1733.953613	932.0026245	-83.93618774	1335.266357	1124.994873	91.94398499	1513.208252	884.9022217	156.2771912	1342.220825	889.0897217	-120.0729141	1495.732788	964.9642334	-78.63101196	1306.939575	873.0736694	-5.278866529	1189.530762	1122.611328	38.8230896	1324.5802	881.0816956	9.537757874	1554.71759	880.4179077	-58.01234436	1733.269958	874.1082153	-102.008255	1457.977783	1016.203125
